<svg width="23" height="24" viewBox="0 0 23 24" fill="none" xmlns="http://www.w3.org/2000/svg">
<g clip-path="url(#clip0_13_2126)">
<path d="M18.9271 0.153931H4.07292C1.82351 0.153931 0 2.0307 0 4.34581V19.042C0 21.3572 1.82351 23.2339 4.07292 23.2339H18.9271C21.1765 23.2339 23 21.3572 23 19.042V4.34581C23 2.0307 21.1765 0.153931 18.9271 0.153931Z" fill="#00005B"/>
<path d="M9.23974 13.9625H5.67557L4.95041 16.2854C4.94053 16.3277 4.91664 16.3651 4.88284 16.3912C4.84903 16.4173 4.80745 16.4304 4.76524 16.4283H2.96004C2.85709 16.4283 2.82109 16.3701 2.85204 16.2536L5.93789 7.14464C5.96872 7.04938 5.9996 6.95625 6.03045 6.8344C6.07085 6.62254 6.09152 6.40719 6.09216 6.19129C6.09007 6.17619 6.09143 6.1608 6.09612 6.14633C6.1008 6.13186 6.1087 6.11872 6.11918 6.10793C6.12965 6.09714 6.14243 6.08902 6.15648 6.08419C6.17054 6.07936 6.1855 6.07796 6.20017 6.08011H8.65342C8.72525 6.08011 8.76639 6.10658 8.77686 6.15953L12.2793 16.2695C12.3101 16.3754 12.2793 16.4284 12.1867 16.4283H10.1809C10.1465 16.4322 10.1118 16.4231 10.0834 16.4027C10.055 16.3822 10.0348 16.3518 10.0266 16.3171L9.23974 13.9625ZM6.23105 12.0039H8.66886C8.60714 11.7922 8.53512 11.554 8.45281 11.2893C8.37036 11.0248 8.28294 10.7416 8.19054 10.4397C8.09798 10.138 8.0054 9.83628 7.91281 9.53455C7.82025 9.23285 7.73538 8.94172 7.65821 8.66116C7.58109 8.3808 7.51167 8.12408 7.44993 7.891H7.43449C7.34767 8.31989 7.23953 8.7439 7.11049 9.16138C6.96632 9.63778 6.81974 10.1248 6.67077 10.6223C6.52155 11.1201 6.37497 11.5806 6.23105 12.0039Z" fill="#9999FF"/>
<path d="M17.9572 13.0583H14.9177C14.9549 13.3679 15.0548 13.6659 15.2108 13.9333C15.3834 14.198 15.6274 14.405 15.9128 14.5287C16.2997 14.701 16.7181 14.7854 17.1395 14.7762C17.4738 14.7696 17.8069 14.732 18.1346 14.6637C18.4278 14.623 18.7151 14.5459 18.9903 14.4342C19.0416 14.392 19.0674 14.4183 19.0674 14.5136V16.0222C19.07 16.0633 19.062 16.1043 19.0443 16.1413C19.0266 16.1701 19.0029 16.1946 18.9748 16.2127C18.6696 16.3519 18.3484 16.4504 18.0189 16.5058C17.5714 16.5923 17.1165 16.6322 16.6612 16.6249C15.9307 16.6249 15.3186 16.5085 14.8251 16.2755C14.3585 16.064 13.9464 15.7432 13.6216 15.3386C13.3183 14.9575 13.0926 14.5173 12.9581 14.0444C12.825 13.5777 12.7575 13.0937 12.7576 12.6073C12.7562 12.0762 12.8369 11.5482 12.9967 11.0431C13.1507 10.5505 13.3942 10.0925 13.7142 9.69335C14.0299 9.2989 14.4246 8.97931 14.8714 8.75644C15.3239 8.52891 15.8588 8.44728 16.476 8.44728C16.9878 8.43397 17.4962 8.53698 17.9649 8.74898C18.3591 8.92199 18.706 9.1917 18.9755 9.53454C19.2283 9.87027 19.4216 10.2493 19.5464 10.6541C19.668 11.0442 19.7304 11.4513 19.7316 11.861C19.7316 12.0939 19.7239 12.3057 19.7084 12.4961C19.693 12.6867 19.6802 12.8243 19.6698 12.909C19.6658 12.944 19.6495 12.9763 19.6239 12.9997C19.5983 13.0231 19.5652 13.0361 19.531 13.0361C19.4692 13.0361 19.3638 13.044 19.2147 13.0599C19.0655 13.0757 18.8803 13.0863 18.6592 13.0916C18.4379 13.0971 18.2041 13.0583 17.9572 13.0583ZM14.9177 11.6117H16.9389C17.1858 11.6117 17.3683 11.6091 17.4866 11.6038C17.5657 11.5957 17.6422 11.5696 17.7104 11.5275V11.4322C17.7073 11.308 17.6865 11.1849 17.6487 11.067C17.5654 10.796 17.398 10.5607 17.1723 10.3972C16.9465 10.2337 16.6748 10.151 16.3989 10.1618C16.1392 10.1457 15.8806 10.2076 15.6546 10.3401C15.4286 10.4727 15.2449 10.67 15.126 10.9081C15.0203 11.1296 14.9499 11.3672 14.9177 11.6117Z" fill="#9999FF"/>
</g>
<defs>
<clipPath id="clip0_13_2126">
<rect width="23" height="23.08" fill="white" transform="translate(0 0.153931)"/>
</clipPath>
</defs>
</svg>
