<?xml version="1.0" encoding="utf-8"?>
<!-- Generator: Adobe Illustrator 24.2.1, SVG Export Plug-In . SVG Version: 6.00 Build 0)  -->
<svg version="1.1" id="Layer_1" xmlns="http://www.w3.org/2000/svg" xmlns:xlink="http://www.w3.org/1999/xlink" x="0px" y="0px"
	 viewBox="0 0 960 560" style="enable-background:new 0 0 960 560;" xml:space="preserve">
<style type="text/css">
	.st0{fill:#F5F1E8;}
	.st1{fill:#E73F1B;}
	.st2{fill:#01AA91;}
	.st3{fill:#EF9F22;}
</style>
<g>
	<g>
		<g>
			<path class="st0" d="M348.93,231.25h21.1v38.94h27.38l20.69-38.94h23.97l-26.83,48.34l20.02,52.16h-23.97l-13.75-38.67h-27.51
				v38.67h-21.1V231.25z"/>
			<path class="st0" d="M451,231.25h77.49v22.88H472.1v18.25h50.94v17.02H472.1v19.48h52.43v22.88H451V231.25z"/>
			<path class="st0" d="M540.95,231.25h43.16c32.96,0,50.66,20.42,50.66,50.25c0,29.83-17.7,50.25-50.66,50.25h-43.16V231.25z
				 M583.02,308.87c20.29,0,30.64-11.3,30.64-27.38c0-16.07-10.35-27.37-30.64-27.37h-20.97v54.74H583.02z"/>
			<path class="st0" d="M647.53,231.25h77.49v22.88h-56.39v18.25h50.94v17.02h-50.94v19.48h52.43v22.88h-73.53V231.25z"/>
			<path class="st0" d="M737.47,231.25h77.49v22.88h-56.39v18.25h50.94v17.02h-50.94v19.48H811v22.88h-73.53V231.25z"/>
			<path class="st0" d="M827.41,231.25h21.1v77.21h51.21v23.29h-72.31V231.25z"/>
		</g>
	</g>
	<g>
		<g>
			<polygon class="st1" points="238.4,400.2 182.51,400.2 182.51,384.54 210.63,352.12 			"/>
		</g>
		<g>
			<polygon class="st1" points="236.72,322.03 219.42,341.99 253.03,400.2 296.62,400.2 296.62,356.61 			"/>
		</g>
		<g>
			<polygon class="st1" points="267.89,286.09 248.69,308.22 245.18,312.27 296.62,341.96 296.62,286.09 			"/>
		</g>
		<g>
			<polygon class="st1" points="245.18,247.23 267.89,273.41 296.62,273.41 296.62,217.53 			"/>
		</g>
		<g>
			<polygon class="st1" points="253.03,159.3 219.42,217.52 236.72,237.48 296.62,202.89 296.62,159.3 			"/>
		</g>
		<g>
			<polygon class="st1" points="182.51,159.3 182.51,174.96 210.63,207.39 238.4,159.3 			"/>
		</g>
		<g>
			<polygon class="st1" points="113.96,159.3 142,207.9 169.83,175.82 169.83,159.3 			"/>
		</g>
		<g>
			<polygon class="st2" points="214.32,281.1 177.63,323.37 140.94,281.1 177.63,238.73 			"/>
			<path class="st2" d="M176.48,187.42l-80.03,92.35l80.03,92.35l80.12-92.35L176.48,187.42z M123.39,281.1l54.24-62.57l54.33,62.57
				l-54.33,62.57L123.39,281.1z"/>
		</g>
		<g>
			<polygon class="st1" points="85.15,286.09 55.72,286.09 55.72,341.97 107.63,312.01 			"/>
		</g>
		<g>
			<polygon class="st1" points="148.97,359.69 141.99,351.62 113.96,400.2 169.83,400.2 169.83,383.73 			"/>
		</g>
		<g>
			<polygon class="st1" points="116.09,321.76 55.72,356.62 55.72,400.2 99.31,400.2 133.2,341.49 			"/>
		</g>
		<g>
			<polygon class="st1" points="55.72,217.52 55.72,273.41 85.15,273.41 107.63,247.49 			"/>
		</g>
		<g>
			<polygon class="st1" points="99.31,159.3 55.72,159.3 55.72,202.89 116.1,237.74 133.2,218.03 			"/>
		</g>
		<g>
			<g>
				<polygon class="st3" points="214.32,281.1 177.63,323.37 140.94,281.1 177.63,238.73 				"/>
			</g>
		</g>
	</g>
</g>
</svg>
