<svg xmlns="http://www.w3.org/2000/svg" viewBox="0 0 455.98 169.394">
  <defs>
    <style>
      .cls-1 {
        fill: #fff;
      }
    </style>
  </defs>
  <g id="Group_3" data-name="Group 3" transform="translate(-1001.775 -773.381)">
    <path id="Path_53" data-name="Path 53" class="cls-1" d="M1156.621,855.046h8.2V874.9h15.175l10.907-19.85h9.281L1186.7,878.961l9.824,25.947h-9.281l-7.453-20.595h-14.971v20.595h-8.2Z"/>
    <path id="Path_54" data-name="Path 54" class="cls-1" d="M1226.468,905.586c-14.16,0-21.612-7.52-21.612-21.205V855.046h8.2v28.183c0,8.062,5.15,12.534,13.415,12.534,8.332,0,13.413-4.472,13.413-12.534V855.046h8.265v29.335c0,13.685-7.452,21.205-21.678,21.205"/>
    <path id="Path_55" data-name="Path 55" class="cls-1" d="M1256.614,855.046h23.847c13.007,0,17.817,6.707,17.817,15.243,0,7.453-4.065,11.992-11.449,13.821l6.572,20.8h-8.808l-4.945-16.8h-14.837v16.8h-8.2Zm22.966,24.593c7.723,0,10.433-3.117,10.433-7.656,0-4.268-2.574-7.52-10.433-7.52h-14.769v15.176Z"/>
    <path id="Path_56" data-name="Path 56" class="cls-1" d="M1301.734,879.977c0-14.43,9.213-25.608,25.27-25.608s25.338,11.178,25.338,25.608c0,14.5-9.282,25.608-25.338,25.608s-25.27-11.11-25.27-25.608M1327,895.762c11.313,0,17.073-6.978,17.073-15.785,0-8.875-5.76-15.718-17.073-15.718s-17.073,6.843-17.073,15.718c0,8.807,5.759,15.785,17.073,15.785"/>
    <path id="Path_57" data-name="Path 57" class="cls-1" d="M1357.354,879.977c0-14.43,9.213-25.608,25.27-25.608s25.338,11.178,25.338,25.608c0,14.5-9.282,25.608-25.338,25.608s-25.27-11.11-25.27-25.608m25.27,15.785c11.313,0,17.073-6.978,17.073-15.785,0-8.875-5.76-15.718-17.073-15.718s-17.073,6.843-17.073,15.718c0,8.807,5.759,15.785,17.073,15.785"/>
    <path id="Path_58" data-name="Path 58" class="cls-1" d="M1436.076,905.586c-14.159,0-21.612-7.52-21.612-21.205V855.046h8.2v28.183c0,8.062,5.15,12.534,13.415,12.534,8.332,0,13.414-4.472,13.414-12.534V855.046h8.265v29.335c0,13.685-7.453,21.205-21.679,21.205"/>
    <path id="Path_59" data-name="Path 59" class="cls-1" d="M1054.115,872.134v-9.488l-15.279-26.467,25.286-43.8,25.3,43.8-15.281,26.46v9.489l8.215-4.742,18.018-31.207-30.579-52.952-5.671-9.846-36.236,62.8,18.02,31.214Z"/>
    <path id="Path_60" data-name="Path 60" class="cls-1" d="M1045.951,884.73h-41.805v9.485h31.635a37.032,37.032,0,0,1,10.17-9.485"/>
    <path id="Path_61" data-name="Path 61" class="cls-1" d="M1059.384,861.234v18.575a33.973,33.973,0,0,1,4.445-.335c.1,0,.2-.008.3-.008s.193.007.29.008a33.93,33.93,0,0,1,4.453.335V836.181h-9.485Z"/>
    <path id="Path_62" data-name="Path 62" class="cls-1" d="M1048.878,883.084q1.183-.592,2.412-1.091c.825-.336,1.662-.643,2.515-.915a33.851,33.851,0,0,1,3.635-.94l-6.267-3.618-4.563-2.635-4.564-2.635-35.528-20.514-4.743,8.213,44.4,25.641c.878-.54,1.777-1.045,2.7-1.506"/>
    <path id="Path_63" data-name="Path 63" class="cls-1" d="M1092.468,894.214h31.543v-9.485H1082.3a37.019,37.019,0,0,1,10.17,9.485"/>
    <path id="Path_64" data-name="Path 64" class="cls-1" d="M1081.645,873.878l-4.564,2.635-6.278,3.624a33.98,33.98,0,0,1,3.642.941q1.278.41,2.514.915t2.413,1.091q1.382.691,2.7,1.5L1126.382,859l-4.742-8.215-35.432,20.455Z"/>
    <path id="Path_65" data-name="Path 65" class="cls-1" d="M1087.875,896.849a32.566,32.566,0,0,0-2.243-2.635,30.849,30.849,0,0,0-8.9-6.557c-.8-.386-1.606-.739-2.435-1.052s-1.688-.6-2.557-.842a28.708,28.708,0,0,0-15.231,0c-.868.239-1.719.524-2.556.841s-1.64.666-2.435,1.053a30.841,30.841,0,0,0-8.9,6.556,32.37,32.37,0,0,0-2.243,2.635q-.966,1.266-1.813,2.635a34.576,34.576,0,0,0-5.138,18.251v25.04h9.484v-25.04a24.515,24.515,0,0,1,7.858-18.251,21.193,21.193,0,0,1,3.628-2.635,20.353,20.353,0,0,1,1.875-.951,19.6,19.6,0,0,1,2.509-.921,19.127,19.127,0,0,1,8.955-.41c.585.112,1.163.244,1.731.408a19.563,19.563,0,0,1,2.51.92,20.326,20.326,0,0,1,1.88.954,21.238,21.238,0,0,1,3.629,2.635,24.514,24.514,0,0,1,7.857,18.251v25.04h9.485v-25.04a34.568,34.568,0,0,0-5.139-18.251q-.848-1.367-1.812-2.635"/>
  </g>
</svg>
