<?xml version="1.0" encoding="utf-8"?>
<!-- Generator: Adobe Illustrator 24.2.1, SVG Export Plug-In . SVG Version: 6.00 Build 0)  -->
<svg version="1.1" id="Layer_1" xmlns="http://www.w3.org/2000/svg" xmlns:xlink="http://www.w3.org/1999/xlink" x="0px" y="0px"
	 viewBox="0 0 960 560" style="enable-background:new 0 0 960 560;" xml:space="preserve">
<style type="text/css">
	.st0{fill:#fff;}
	.st1{fill:#2053A4;}
	.st2{fill:#F9A41A;}
	.st3{fill:#00AA4E;}
</style>
<g>
	<g>
		<g>
			<path class="st0" d="M347.49,274.26h14.84v35.92h27.46l19.74-35.92h16.8l-24.4,43.28l17.78,46.96h-16.8l-13.49-37.27h-27.1v37.27
				h-14.84V274.26z"/>
			<path class="st0" d="M473.89,365.72c-25.62,0-39.11-13.61-39.11-38.38v-53.09h14.83v51c0,14.59,9.32,22.68,24.28,22.68
				c15.08,0,24.28-8.09,24.28-22.68v-51h14.96v53.09C513.13,352.11,499.64,365.72,473.89,365.72z"/>
			<path class="st0" d="M528.45,274.26h43.16c23.54,0,32.25,12.14,32.25,27.59c0,13.49-7.36,21.7-20.72,25.01l11.89,37.64h-15.94
				l-8.95-30.41h-26.85v30.41h-14.84V274.26z M570.01,318.77c13.98,0,18.88-5.64,18.88-13.86c0-7.72-4.66-13.61-18.88-13.61h-26.73
				v27.46H570.01z"/>
			<path class="st0" d="M610.11,319.38c0-26.11,16.67-46.35,45.73-46.35c29.06,0,45.85,20.23,45.85,46.35
				c0,26.24-16.8,46.35-45.85,46.35C626.78,365.72,610.11,345.62,610.11,319.38z M655.84,347.95c20.47,0,30.9-12.63,30.9-28.57
				c0-16.06-10.42-28.44-30.9-28.44c-20.48,0-30.9,12.38-30.9,28.44C624.94,335.32,635.36,347.95,655.84,347.95z"/>
			<path class="st0" d="M710.77,319.38c0-26.11,16.67-46.35,45.73-46.35c29.06,0,45.85,20.23,45.85,46.35
				c0,26.24-16.8,46.35-45.85,46.35C727.44,365.72,710.77,345.62,710.77,319.38z M756.5,347.95c20.47,0,30.9-12.63,30.9-28.57
				c0-16.06-10.42-28.44-30.9-28.44c-20.48,0-30.9,12.38-30.9,28.44C725.6,335.32,736.02,347.95,756.5,347.95z"/>
			<path class="st0" d="M853.23,365.72c-25.62,0-39.11-13.61-39.11-38.38v-53.09h14.83v51c0,14.59,9.32,22.68,24.28,22.68
				c15.08,0,24.28-8.09,24.28-22.68v-51h14.96v53.09C892.47,352.11,878.98,365.72,853.23,365.72z"/>
		</g>
	</g>
	<g>
		<polygon class="st1" points="161.98,305.19 161.98,288.01 134.32,240.12 180.09,160.84 225.87,240.12 198.21,288 198.21,305.17 
			213.08,296.59 245.69,240.12 190.35,144.28 180.08,126.47 114.5,240.12 147.12,296.61 		"/>
		<path class="st2" d="M147.2,327.98H71.54v17.16h57.25C133.85,338.27,140.09,332.43,147.2,327.98z"/>
		<path class="st2" d="M171.51,285.46V295v9.54v14.54c2.64-0.37,5.32-0.58,8.04-0.61c0.18,0,0.36-0.01,0.54-0.01
			c0.18,0,0.35,0.01,0.53,0.01c2.73,0.02,5.42,0.23,8.06,0.61v-14.56l0-9.54v-9.53l0-45.33h-17.16V285.46z"/>
		<path class="st2" d="M152.5,325c1.43-0.71,2.88-1.37,4.37-1.98c1.49-0.61,3.01-1.16,4.55-1.65c2.15-0.69,4.34-1.25,6.58-1.7
			l-11.34-6.55l-8.26-4.77l-8.26-4.77l-64.3-37.13l-8.58,14.86l80.36,46.4C149.2,326.75,150.83,325.84,152.5,325z"/>
		<path class="st2" d="M231.39,345.14h57.09v-17.16h-75.49C220.09,332.43,226.33,338.27,231.39,345.14z"/>
		<path class="st2" d="M211.8,308.34l-8.26,4.77l-11.36,6.56c2.24,0.45,4.44,1.02,6.59,1.7c1.54,0.49,3.06,1.05,4.55,1.65
			c1.48,0.6,2.94,1.26,4.37,1.97c1.67,0.83,3.29,1.75,4.88,2.72l80.2-46.3l-8.58-14.87l-64.12,37.02L211.8,308.34z"/>
		<path class="st3" d="M223.07,349.91c-1.27-1.67-2.63-3.26-4.06-4.77c-4.65-4.91-10.09-8.94-16.11-11.87
			c-1.44-0.7-2.91-1.34-4.41-1.9c-1.52-0.57-3.06-1.09-4.63-1.52c-4.41-1.21-9.03-1.86-13.78-1.86c-4.76,0-9.37,0.65-13.78,1.86
			c-1.57,0.43-3.11,0.95-4.63,1.52c-1.5,0.57-2.97,1.21-4.41,1.91c-6.01,2.92-11.46,6.96-16.11,11.87c-1.43,1.51-2.79,3.1-4.06,4.77
			c-1.17,1.53-2.26,3.12-3.28,4.77c-5.87,9.47-9.3,20.82-9.3,33.03v45.32h17.16v-45.32c0-13.32,5.55-25.22,14.22-33.03
			c2.03-1.83,4.23-3.42,6.57-4.77c1.1-0.63,2.23-1.21,3.39-1.72c1.47-0.65,2.99-1.22,4.54-1.67c1.37-0.4,2.78-0.7,4.2-0.93
			c1.79-0.28,3.61-0.44,5.47-0.44c2.23,0,4.41,0.22,6.53,0.63c1.06,0.2,2.11,0.44,3.13,0.74c1.56,0.45,3.07,1.01,4.54,1.67
			c1.16,0.52,2.3,1.09,3.4,1.73c2.34,1.34,4.54,2.94,6.57,4.77c8.67,7.81,14.22,19.71,14.22,33.03v45.32h17.16v-45.32
			c0-12.21-3.43-23.56-9.3-33.03C225.33,353.03,224.24,351.44,223.07,349.91z"/>
	</g>
</g>
</svg>
