<svg version="1.2" xmlns="http://www.w3.org/2000/svg" viewBox="0 0 826 307" width="826" height="307"><style>.a{fill:#231f20}.b{fill:#2053a4}.c{fill:#f9a41a}.d{fill:#00aa4e}</style><path class="a" d="m280.5 148.3h14.8v35.9h27.5l19.7-35.9h16.8l-24.4 43.2 17.8 47h-16.8l-13.5-37.3h-27.1v37.3h-14.8c0 0 0-90.2 0-90.2z"/><path class="a" d="m406.9 239.7c-25.6 0-39.1-13.6-39.1-38.4v-53.1h14.8v51c0 14.6 9.3 22.7 24.3 22.7 15.1 0 24.3-8.1 24.3-22.7v-51h14.9v53.1c0 24.8-13.5 38.4-39.2 38.4z"/><path fill-rule="evenodd" class="a" d="m461.4 148.3h43.2c23.5 0 32.3 12.1 32.3 27.5 0 13.5-7.4 21.7-20.8 25.1l11.9 37.6h-15.9l-9-30.4h-26.8v30.4h-14.9zm41.6 44.5c14 0 18.9-5.6 18.9-13.9 0-7.7-4.7-13.6-18.9-13.6h-26.7v27.5h26.7z"/><path fill-rule="evenodd" class="a" d="m543.1 193.4c0-26.1 16.7-46.4 45.7-46.4 29.1 0 45.9 20.3 45.9 46.4 0 26.2-16.8 46.3-45.9 46.3-29 0-45.7-20.1-45.7-46.3zm45.7 28.5c20.5 0 30.9-12.6 30.9-28.5 0-16.1-10.4-28.5-30.9-28.5-20.4 0-30.9 12.4-30.9 28.5 0 15.9 10.5 28.5 30.9 28.5z"/><path fill-rule="evenodd" class="a" d="m643.8 193.4c0-26.1 16.6-46.4 45.7-46.4 29.1 0 45.8 20.3 45.8 46.4 0 26.2-16.8 46.3-45.8 46.3-29.1 0-45.7-20.1-45.7-46.3zm45.7 28.5c20.5 0 30.9-12.6 30.9-28.5 0-16.1-10.4-28.5-30.9-28.5-20.5 0-30.9 12.4-30.9 28.5 0 15.9 10.4 28.5 30.9 28.5z"/><path class="a" d="m786.2 239.7c-25.6 0-39.1-13.6-39.1-38.4v-53.1h14.8v51c0 14.6 9.4 22.7 24.3 22.7 15.1 0 24.3-8.1 24.3-22.7v-51h15v53.1c0 24.8-13.5 38.4-39.3 38.4z"/><path class="b" d="m80.1 170.6l-32.6-56.5 65.6-113.6 10.2 17.8 55.4 95.8-32.6 56.5-14.9 8.6v-17.2l27.7-47.9-45.8-79.3-45.8 79.3 27.7 47.9v17.2z"/><path class="c" d="m61.8 219.1h-57.3v-17.1h75.7c-7.1 4.4-13.4 10.3-18.4 17.1z"/><path class="c" d="m104.5 114.1h17.2v45.3 9.6 9.5 14.6q-4-0.6-8.1-0.6-0.2 0-0.5 0-0.3 0-0.6 0-4 0-8 0.6v-14.6-9.5-9.5c0 0 0-45.4 0-45.4z"/><path class="c" d="m80.6 201.7l-80.3-46.4 8.5-14.9 64.3 37.2 8.3 4.7 8.3 4.8 11.3 6.6q-3.4 0.6-6.6 1.7-2.3 0.7-4.5 1.6-2.3 0.9-4.4 2-2.5 1.3-4.9 2.7z"/><path class="c" d="m146 202h75.5v17.1h-57.1c-5.1-6.8-11.3-12.7-18.4-17.1z"/><path class="c" d="m153.1 177.6l64.1-37.1 8.6 14.9-80.2 46.3q-2.4-1.5-4.9-2.7-2.2-1.1-4.4-2-2.2-0.9-4.5-1.6-3.3-1.1-6.6-1.7l11.3-6.6 8.3-4.8z"/><path class="d" d="m159.3 228.7c5.9 9.5 9.3 20.8 9.3 33v45.3h-17.2v-45.3c0-13.3-5.5-25.2-14.2-33q-3-2.8-6.5-4.8-1.7-0.9-3.4-1.7-2.2-1-4.6-1.7-1.5-0.4-3.1-0.7-3.2-0.6-6.5-0.6-2.8 0-5.5 0.4-2.1 0.3-4.2 0.9-2.3 0.7-4.6 1.7-1.7 0.8-3.3 1.7-3.6 2-6.6 4.8c-8.7 7.8-14.2 19.7-14.2 33v45.3h-17.2v-45.3c0-12.2 3.4-23.5 9.3-33q1.5-2.5 3.3-4.8 1.9-2.5 4-4.8c4.7-4.9 10.1-8.9 16.2-11.8q2.1-1.1 4.4-1.9 2.2-0.9 4.6-1.6c4.4-1.2 9-1.8 13.8-1.8 4.7 0 9.3 0.6 13.8 1.8q2.3 0.7 4.6 1.6 2.2 0.8 4.4 1.9c6 2.9 11.5 6.9 16.1 11.8q2.2 2.3 4.1 4.8 1.7 2.3 3.2 4.8z"/></svg>