<svg version="1.2" xmlns="http://www.w3.org/2000/svg" viewBox="0 0 56 59" width="56" height="59"><defs><linearGradient id="P" gradientUnits="userSpaceOnUse"/><linearGradient id="g1" x1=".7" y1="57.6" x2="55" y2="1.1" href="#P"><stop stop-color="#2053a4"/><stop offset="1" stop-color="#2053a4"/></linearGradient><linearGradient id="g2" x1=".7" y1="57.6" x2="55" y2="1.1" href="#P"><stop stop-color="#2053a4"/><stop offset="1" stop-color="#2053a4"/></linearGradient></defs><style>.a{fill:url(#g1);stroke:url(#g2);stroke-width:.4}</style><path class="a" d="m37.9 9.4c4.1 1.4 8.5 3.3 10.7 6.7 2.2 3.3 2.1 8.1 3.5 13.8 1.5 5.6 4.6 12.1 1.7 14.1-3 2.1-11.9-0.4-17.5 1.9-5.6 2.4-7.9 9.4-11.4 11.2-3.4 1.8-7.8-1.5-13.3-3.9-5.5-2.4-12.1-3.7-10.7-7.6 1.4-3.9 10.9-10.2 13-15.4 2.2-5.1-2.9-9-5.3-14.3-2.3-5.4-1.7-12.3 1.6-14.2 3.4-1.9 9.6 1.3 14.6 3.3 5.1 2 8.9 3 13.1 4.4z"/></svg>