<svg version="1.2" xmlns="http://www.w3.org/2000/svg" viewBox="0 0 48 49" width="48" height="49"><defs><linearGradient id="P" gradientUnits="userSpaceOnUse"/><linearGradient id="g1" x1="1.3" y1="47.9" x2="46.9" y2="1.1" href="#P"><stop stop-color="#f9a41a"/><stop offset="1" stop-color="#fba81f"/></linearGradient><linearGradient id="g2" x1="1.3" y1="47.9" x2="46.9" y2="1.1" href="#P"><stop stop-color="#f9a41a"/><stop offset="1" stop-color="#fba81f"/></linearGradient></defs><style>.a{fill:url(#g1);stroke:url(#g2);stroke-width:.4}</style><path class="a" d="m46.8 5.6c0.9 4.4-5.9 12.9-7.1 20.2-1.2 7.2 3.1 13.3 2.2 17.3-0.8 4.1-6.9 6.1-10.5 3.8-3.7-2.4-5-9.2-10.6-13.3-5.7-4-15.7-5.3-18.6-9.5-2.9-4.2 1.3-11.3 6.9-15.8 5.7-4.4 12.8-6.2 20.6-6.9 7.8-0.7 16.3-0.3 17.1 4.2z"/></svg>