<svg version="1.2" xmlns="http://www.w3.org/2000/svg" viewBox="0 0 64 62" width="64" height="62"><defs><linearGradient id="P" gradientUnits="userSpaceOnUse"/><linearGradient id="g1" x1="1.1" y1="60.9" x2="63.1" y2="1" href="#P"><stop stop-color="#f9a41a"/><stop offset="1" stop-color="#fba81f"/></linearGradient><linearGradient id="g2" x1="1.1" y1="60.9" x2="63.1" y2="1" href="#P"><stop stop-color="#f9a41a"/><stop offset="1" stop-color="#fba81f"/></linearGradient></defs><style>.a{fill:url(#g1);stroke:url(#g2);stroke-width:.4}</style><path class="a" d="m40 12.5c6.3 2.6 16 2.4 20.2 6.2 4.3 3.9 3.2 11.6 0.4 18.4-2.8 6.8-7.4 12.6-13.1 15.7-5.7 3-12.6 3.4-20.8 5.1-8.2 1.8-17.6 5-21.8 1.4-4.2-3.5-3.1-13.9-3.1-21.9-0.1-8.1-1.4-13.9-0.3-19.5 1.1-5.6 4.6-10.9 9.4-14 4.8-3.1 11-3.9 15.5-1.7 4.5 2.3 7.3 7.6 13.6 10.3z"/></svg>