<svg version="1.2" xmlns="http://www.w3.org/2000/svg" viewBox="0 0 83 79" width="83" height="79"><defs><linearGradient id="P" gradientUnits="userSpaceOnUse"/><linearGradient id="g1" x1="1.1" y1="78.1" x2="81.7" y2=".5" href="#P"><stop stop-color="#2053a4"/><stop offset="1" stop-color="#2053a4"/></linearGradient><linearGradient id="g2" x1="1.1" y1="78.1" x2="81.7" y2=".5" href="#P"><stop stop-color="#2053a4"/><stop offset="1" stop-color="#2053a4"/></linearGradient></defs><style>.a{fill:url(#g1);stroke:url(#g2);stroke-width:.4}</style><path class="a" d="m66.3 5.3c7 2.6 14.4 6.5 15.3 12.3 0.9 5.8-4.8 13.4-7 20.7-2.3 7.4-1.1 14.5-3.4 20.4-2.2 6-7.9 10.9-15 14.6-7.1 3.7-15.6 6.3-22.1 3.7-6.5-2.6-11.1-10.3-16.5-17.1-5.5-6.7-11.7-12.5-14.6-19.9-2.9-7.4-2.6-16.5 1.4-23.5 4-6.9 11.5-11.7 19.1-14.1 7.5-2.3 15-2.2 22.1-1.5 7 0.7 13.7 1.9 20.7 4.4z"/></svg>