<svg id="Group_57291" data-name="Group 57291" xmlns="http://www.w3.org/2000/svg" width="135.439" height="11.476" viewBox="0 0 135.439 11.476">
          <g id="Group_55501" data-name="Group 55501">
            <path id="Path_1344" data-name="Path 1344" d="M117.023,95.556c-4.877,0-7.361-2.274-9.553-4.279-1.979-1.812-3.542-3.242-6.883-3.242s-4.9,1.431-6.883,3.242c-2.191,2.006-4.676,4.279-9.553,4.279S76.79,93.283,74.6,91.277c-1.979-1.812-3.542-3.242-6.883-3.242s-4.9,1.431-6.882,3.242c-2.191,2.006-4.676,4.279-9.553,4.279s-7.36-2.274-9.552-4.279c-1.979-1.812-3.542-3.242-6.882-3.242s-4.9,1.431-6.882,3.242c-2.191,2.006-4.676,4.279-9.553,4.279s-7.361-2.274-9.553-4.279c-1.979-1.812-3.542-3.242-6.883-3.242a1.977,1.977,0,1,1,0-3.955c4.877,0,7.361,2.274,9.553,4.279,1.979,1.812,3.542,3.242,6.883,3.242s4.9-1.431,6.882-3.242c2.191-2.006,4.676-4.28,9.553-4.28s7.36,2.274,9.552,4.28c1.979,1.812,3.541,3.242,6.881,3.242s4.9-1.431,6.883-3.242c2.191-2.006,4.676-4.28,9.553-4.28s7.361,2.274,9.553,4.28c1.979,1.811,3.542,3.242,6.883,3.242s4.9-1.431,6.883-3.242c2.192-2.006,4.676-4.28,9.553-4.28s7.361,2.274,9.553,4.28c1.979,1.811,3.542,3.242,6.883,3.242s4.9-1.431,6.884-3.242c2.192-2.006,4.676-4.279,9.554-4.279a1.977,1.977,0,0,1,0,3.955c-3.341,0-4.9,1.431-6.884,3.242C124.386,93.283,121.9,95.556,117.023,95.556Z" transform="translate(0 -84.08)" fill="#fc8e0b"></path>
          </g>
        </svg>